<svg viewBox="-25.6 -25.6 563.20 563.20" xmlns="http://www.w3.org/2000/svg">
  <defs>
    <linearGradient id="linearGradient1">
      <stop style="stop-color:#ff0060;stop-opacity:1;" offset="0"/>
      <stop style="stop-color:#990044;stop-opacity:1;" offset="1"/>
    </linearGradient>
    <linearGradient id="linearGradient2">
      <stop style="stop-color:#00dfa2;stop-opacity:1;" offset="0"/>
      <stop style="stop-color:#00996a;stop-opacity:1;" offset="1"/>
    </linearGradient>
    <linearGradient id="linearGradient3">
      <stop style="stop-color:#0079ff;stop-opacity:1;" offset="0"/>
      <stop style="stop-color:#004999;stop-opacity:1;" offset="1"/>
    </linearGradient>
  </defs>
  <!-- <rect fill="#000000" width="563.20001" height="563.20001" x="-25.6" y="-25.6"/> -->
  <rect fill="#212121" x="288.74924" y="131.22719" width="130.99701" height="172.76236" />
  <rect fill="#212121" x="92.253746" y="73.639725" width="130.99701" height="115.17491"/>
  <path fill="url(#linearGradient1)" d="m 354.24775,438.36027 c -36.11884,0 -65.4985,-25.83112 -65.4985,-57.58745 v -76.78327 h 130.99701 v 76.78327 c 0,31.75633 -29.37966,57.58745 -65.49851,57.58745 z"/>
  <path fill="url(#linearGradient2)" d="m 157.75225,438.36027 c -36.11885,0 -65.498506,-25.83112 -65.498506,-57.58745 V 188.81464 H 223.25075 v 191.95818 c 0,31.75633 -29.37966,57.58745 -65.4985,57.58745 z"/>
  <rect fill="url(#linearGradient3)" width="109.16417" height="109.71856" x="103.17016" y="198.41254"/>
  <path fill="#7d7d7d" d="M 234.16717,64.041819 H 81.337326 c -6.033026,0 -10.916417,4.293564 -10.916417,9.597909 0,5.304344 4.883391,9.597909 10.916417,9.597909 V 380.77282 c 0,37.04793 34.277554,67.18536 76.414924,67.18536 42.13737,0 76.41492,-30.13743 76.41492,-67.18536 V 83.237637 c 6.03302,0 10.91641,-4.293565 10.91641,-9.597909 0,-5.304345 -4.88339,-9.597909 -10.91641,-9.597909 z M 212.33433,380.77282 c 0,26.50297 -24.43827,47.98954 -54.58208,47.98954 -30.14381,0 -54.58209,-21.48657 -54.58209,-47.98954 V 198.41255 h 109.16417 z m 0,-201.55609 H 103.17016 V 83.237637 h 109.16417 z"/>
  <path fill="#7d7d7d" d="M 430.66267,121.62927 H 277.83283 c -6.03302,0 -10.91641,4.29357 -10.91641,9.59791 0,5.30435 4.88339,9.59791 10.91641,9.59791 v 239.94773 c 0,37.04793 34.27755,67.18536 76.41492,67.18536 42.13737,0 76.41492,-30.13743 76.41492,-67.18536 V 140.82509 c 6.03303,0 10.91642,-4.29356 10.91642,-9.59791 0,-5.30434 -4.88339,-9.59791 -10.91642,-9.59791 z m -21.83283,259.14355 c 0,26.50297 -24.43828,47.98954 -54.58209,47.98954 -30.14381,0 -54.58208,-21.48657 -54.58208,-47.98954 v -67.18537 h 109.16417 z m 0,-86.38118 H 299.66567 V 140.82509 h 109.16417 z"/>
</svg>
